<?xml version="1.0" encoding="utf-8"?>
<!-- Generator: Adobe Illustrator 24.2.3, SVG Export Plug-In . SVG Version: 6.00 Build 0)  -->
<svg version="1.1" id="Layer_1" xmlns="http://www.w3.org/2000/svg" xmlns:xlink="http://www.w3.org/1999/xlink" x="0px" y="0px"
	 viewBox="0 0 1920 1080" style="enable-background:new 0 0 1920 1080;" xml:space="preserve">
<style type="text/css">
	.st0{fill:#B2243E;}
	.st1{fill:#B826D0;}
	.st2{fill:#B7802E;}
	.st3{fill:#296CD1;}
	.st4{fill:#654040;}
	.st5{fill:#DDC12B;}
	.st6{fill:#3E3B3B;}
	.st7{fill:#14DB58;}
	.st8{fill:#FD1E6E;}
	.st9{fill:#2AC8DD;}
	.st10{fill:#E0822C;}
	.st11{fill:#EE2929;}
	.st12{fill:#1FD795;}
</style>
<g>
	<rect x="1771.5" y="362.5" class="st0" width="148" height="717"/>
	<path d="M1919,363v716h-147V363H1919 M1920,362h-149v718h149V362L1920,362z"/>
</g>
<g>
	<rect x="1622.5" y="818.5" class="st1" width="148" height="261"/>
	<path d="M1770,819v260h-147V819H1770 M1771,818h-149v262h149V818L1771,818z"/>
</g>
<g>
	<rect x="1473.5" y="266.5" class="st2" width="148" height="813"/>
	<path d="M1621,267v812h-147V267H1621 M1622,266h-149v814h149V266L1622,266z"/>
</g>
<g>
	<rect x="1324.5" y="422.5" class="st3" width="148" height="657"/>
	<path d="M1472,423v656h-147V423H1472 M1473,422h-149v658h149V422L1473,422z"/>
</g>
<g>
	<rect x="1175.5" y="556.5" class="st4" width="148" height="523"/>
	<path d="M1323,557v522h-147V557H1323 M1324,556h-149v524h149V556L1324,556z"/>
</g>
<g>
	<rect x="1026.5" y="744.5" class="st5" width="148" height="335"/>
	<path d="M1174,745v334h-147V745H1174 M1175,744h-149v336h149V744L1175,744z"/>
</g>
<g>
	<rect x="886.5" y="1032.5" class="st6" width="139" height="47"/>
	<path d="M1025,1033v46H887v-46H1025 M1026,1032H886v48h140V1032L1026,1032z"/>
</g>
<g>
	<rect x="737.5" y="490.5" class="st7" width="148" height="589"/>
	<path d="M885,491v588H738V491H885 M886,490H737v590h149V490L886,490z"/>
</g>
<g>
	<rect x="588.5" y="409.5" class="st8" width="148" height="670"/>
	<path d="M736,410v669H589V410H736 M737,409H588v671h149V409L737,409z"/>
</g>
<g>
	<rect x="439.5" y="598.5" class="st9" width="148" height="481"/>
	<path d="M587,599v480H440V599H587 M588,598H439v482h149V598L588,598z"/>
</g>
<g>
	<rect x="290.5" y="854.5" class="st10" width="148" height="225"/>
	<path d="M438,855v224H291V855H438 M439,854H290v226h149V854L439,854z"/>
</g>
<g>
	<rect x="141.5" y="662.5" class="st11" width="148" height="417"/>
	<path d="M289,663v416H142V663H289 M290,662H141v418h149V662L290,662z"/>
</g>
<g>
	<rect x="0.5" y="524.5" class="st12" width="140" height="555"/>
	<path d="M140,525v554H1V525H140 M141,524H0v556h141V524L141,524z"/>
</g>
</svg>
